<svg id="svg" version="1.1" xmlns="http://www.w3.org/2000/svg" style="display: block;" viewBox="0 0 16 16"><path d="M0,0 L16,0 L16,16 L0,16 Z " transform="translate(0,0)" style="fill: none;"/><path d="M0,0 L3,0 L3,1 L4,1 L4,2 L6,2 L6,1 L7,1 L7,0 L10,0 L10,1 L11,1 L11,8 L10,8 L10,9 L9,9 L9,10 L8,10 L8,11 L7,11 L7,12 L3,12 L3,11 L2,11 L2,10 L1,10 L1,9 L0,9 L0,8 L-1,8 L-1,1 L0,1 Z " transform="translate(3,2)" style="fill: #CD0900;"/><path d="M0,0 L1,0 L1,1 L2,1 L2,3 L4,3 L4,4 L2,4 L2,6 L1,6 L1,5 L0,5 Z M2,0 L4,0 L4,1 L2,1 Z M8,0 L10,0 L10,1 L11,1 L11,3 L12,3 L12,5 L11,5 L11,6 L10,6 L10,7 L9,7 L9,8 L8,8 L8,9 L4,9 L4,8 L3,8 L3,7 L2,7 L2,6 L3,6 L3,5 L4,5 L4,6 L5,6 L5,5 L6,5 L6,7 L7,7 L7,6 L8,6 L8,5 L10,5 L10,4 L8,4 L8,3 L7,3 L7,1 L8,1 Z M4,1 L5,1 L5,2 L6,2 L6,4 L5,4 L5,3 L4,3 Z M6,4 L7,4 L7,5 L6,5 Z " transform="translate(2,5)" style="fill: #BC0900;"/><path d="M0,0 L3,0 L3,16 L-5,16 L-5,15 L-3,15 L-3,14 L-2,14 L-2,13 L-1,13 L-1,12 L0,12 L0,11 L1,11 L1,10 L2,10 L2,3 L1,3 L1,2 L0,2 Z " transform="translate(13,0)" style="fill: none;"/><path d="M0,0 L3,0 L3,1 L0,1 Z M7,0 L10,0 L10,1 L7,1 Z M-1,1 L0,1 L0,2 L-1,2 Z M3,1 L4,1 L4,2 L3,2 Z M6,1 L7,1 L7,2 L6,2 Z M10,1 L11,1 L11,2 L10,2 Z M-2,2 L-1,2 L-1,9 L-2,9 Z M4,2 L6,2 L6,3 L4,3 Z M11,2 L12,2 L12,9 L11,9 Z M-1,9 L0,9 L0,10 L-1,10 Z M10,9 L11,9 L11,10 L10,10 Z M0,10 L1,10 L1,11 L0,11 Z M9,10 L10,10 L10,11 L9,11 Z M1,11 L2,11 L2,12 L1,12 Z M8,11 L9,11 L9,12 L8,12 Z M2,12 L3,12 L3,13 L2,13 Z M7,12 L8,12 L8,13 L7,13 Z M3,13 L7,13 L7,14 L3,14 Z " transform="translate(3,1)" style="fill: #2D0100;"/><path d="M0,0 L1,0 L1,1 L2,1 L2,3 L4,3 L4,4 L2,4 L2,6 L1,6 L1,5 L0,5 Z M2,0 L4,0 L4,1 L2,1 Z M4,1 L5,1 L5,2 L6,2 L6,4 L5,4 L5,3 L4,3 Z M6,4 L7,4 L7,5 L6,5 Z M5,5 L6,5 L6,7 L5,7 Z M2,6 L4,6 L4,7 L5,7 L5,8 L7,8 L7,9 L4,9 L4,8 L3,8 L3,7 L2,7 Z " transform="translate(2,5)" style="fill: #BC0900;"/><path d="M0,0 L3,0 L3,1 L4,1 L4,6 L3,6 L3,4 L2,4 L2,3 L0,3 L0,4 L-1,4 L-1,3 L-3,3 L-3,2 L-1,2 L-1,1 L0,1 Z " transform="translate(10,2)" style="fill: #BC0900;"/><path d="M0,0 L2,0 L2,1 L3,1 L3,3 L2,3 L2,4 L0,4 L0,3 L-1,3 L-1,1 L0,1 Z " transform="translate(10,5)" style="fill: #3D0100;"/><path d="M0,0 L3,0 L3,1 L4,1 L4,2 L2,2 L2,3 L1,3 L1,4 L0,4 L0,3 L-1,3 L-1,1 L0,1 Z " transform="translate(3,2)" style="fill: #CE0900;"/><path d="M0,0 L1,0 L1,1 L0,1 Z M-2,0 L-1,0 L-1,1 L0,1 L0,2 L-1,2 L-1,3 L-2,3 L-2,2 L-3,2 L-3,3 L-4,3 L-4,1 L-2,1 Z " transform="translate(8,8)" style="fill: #C90900;"/><path d="M0,0 L2,0 L2,1 L0,1 Z M-1,1 L0,1 L0,3 L-1,3 Z M2,1 L3,1 L3,3 L2,3 Z M0,3 L2,3 L2,4 L0,4 Z " transform="translate(4,5)" style="fill: #3D0100;"/><path d="M0,0 L3,0 L3,3 L2,3 L2,2 L0,2 Z " transform="translate(10,3)" style="fill: #C90900;"/><path d="M0,0 L1,0 L1,1 L0,1 Z M5,0 L6,0 L6,1 L5,1 Z M1,1 L2,1 L2,2 L1,2 Z M4,1 L5,1 L5,2 L4,2 Z M2,2 L4,2 L4,3 L2,3 Z " transform="translate(5,10)" style="fill: #3D0100;"/><path d="M0,0 L3,0 L3,1 L1,1 L1,2 L0,2 L0,3 L-1,3 L-1,1 L0,1 Z " transform="translate(9,9)" style="fill: #CD0900;"/><path d="M0,0 L1,0 L1,2 L0,2 Z M1,2 L2,2 L2,3 L1,3 Z M0,3 L1,3 L1,5 L0,5 Z M-1,5 L0,5 L0,6 L-1,6 Z " transform="translate(7,7)" style="fill: #C10900;"/><path d="M0,0 L1,0 L1,3 L2,3 L2,4 L0,4 Z " transform="translate(2,5)" style="fill: #C30900;"/><path d="M0,0 L2,0 L2,2 L0,2 Z " transform="translate(10,6)" style="fill: #CA0900;"/><path d="M0,0 L1,0 L1,1 L2,1 L2,2 L-1,2 L-1,1 L0,1 Z " transform="translate(5,2)" style="fill: #C80900;"/><path d="M0,0 L2,0 L2,1 L1,1 L1,2 L-1,2 L-1,1 L0,1 Z " transform="translate(3,2)" style="fill: #D00A00;"/><path d="M0,0 L2,0 L2,1 L1,1 L1,2 L0,2 Z " transform="translate(4,9)" style="fill: #C30900;"/><path d="M0,0 L1,0 L1,1 L2,1 L2,2 L0,2 Z " transform="translate(4,6)" style="fill: #D60A00;"/><path d="M0,0 L2,0 L2,1 L0,1 Z " transform="translate(7,13)" style="fill: #CA0900;"/><path d="M0,0 L1,0 L1,1 L0,1 Z M-1,1 L0,1 L0,2 L-1,2 Z " transform="translate(7,11)" style="fill: #C40900;"/><path d="M0,0 L1,0 L1,1 L0,1 Z M-1,1 L0,1 L0,2 L-1,2 Z " transform="translate(8,8)" style="fill: #CA0900;"/><path d="M0,0 L1,0 L1,2 L0,2 Z " transform="translate(13,6)" style="fill: #BC0900;"/><path d="M0,0 L1,0 L1,2 L0,2 Z " transform="translate(10,6)" style="fill: #C50900;"/><path d="M0,0 L1,0 L1,2 L0,2 Z " transform="translate(13,4)" style="fill: #BE0900;"/><path d="M0,0 L1,0 L1,2 L0,2 Z " transform="translate(12,4)" style="fill: #D00900;"/><path d="M0,0 L2,0 L2,1 L0,1 Z " transform="translate(10,4)" style="fill: #C60900;"/><path d="M0,0 L1,0 L1,1 L0,1 Z M1,1 L2,1 L2,2 L1,2 Z " transform="translate(12,2)" style="fill: #BC0900;"/><path d="M0,0 L1,0 L1,1 L0,1 Z " transform="translate(7,13)" style="fill: #CC0900;"/><path d="M0,0 L1,0 L1,1 L0,1 Z " transform="translate(9,12)" style="fill: #C00900;"/><path d="M0,0 L1,0 L1,1 L0,1 Z " transform="translate(10,11)" style="fill: #C50900;"/><path d="M0,0 L1,0 L1,1 L0,1 Z " transform="translate(8,11)" style="fill: #CC0900;"/><path d="M0,0 L1,0 L1,1 L0,1 Z " transform="translate(5,11)" style="fill: #CA0900;"/><path d="M0,0 L1,0 L1,1 L0,1 Z " transform="translate(11,10)" style="fill: #BF0900;"/><path d="M0,0 L1,0 L1,1 L0,1 Z " transform="translate(9,10)" style="fill: #D00900;"/><path d="M0,0 L1,0 L1,1 L0,1 Z " transform="translate(11,9)" style="fill: #D00900;"/><path d="M0,0 L1,0 L1,1 L0,1 Z " transform="translate(4,9)" style="fill: #CE0900;"/><path d="M0,0 L1,0 L1,1 L0,1 Z " transform="translate(12,8)" style="fill: #C20900;"/><path d="M0,0 L1,0 L1,1 L0,1 Z " transform="translate(6,8)" style="fill: #C60900;"/><path d="M0,0 L1,0 L1,1 L0,1 Z " transform="translate(3,8)" style="fill: #C70900;"/><path d="M0,0 L1,0 L1,1 L0,1 Z " transform="translate(2,8)" style="fill: #C20900;"/><path d="M0,0 L1,0 L1,1 L0,1 Z " transform="translate(7,7)" style="fill: #BC0900;"/><path d="M0,0 L1,0 L1,1 L0,1 Z " transform="translate(5,7)" style="fill: #D40A00;"/><path d="M0,0 L1,0 L1,1 L0,1 Z " transform="translate(2,7)" style="fill: #C50900;"/><path d="M0,0 L1,0 L1,1 L0,1 Z " transform="translate(11,6)" style="fill: #D40900;"/><path d="M0,0 L1,0 L1,1 L0,1 Z " transform="translate(10,6)" style="fill: #C40900;"/><path d="M0,0 L1,0 L1,1 L0,1 Z " transform="translate(8,6)" style="fill: #CE0900;"/><path d="M0,0 L1,0 L1,1 L0,1 Z " transform="translate(7,6)" style="fill: #C90900;"/><path d="M0,0 L1,0 L1,1 L0,1 Z " transform="translate(4,6)" style="fill: #D60900;"/><path d="M0,0 L1,0 L1,1 L0,1 Z " transform="translate(9,5)" style="fill: #BF0900;"/><path d="M0,0 L1,0 L1,1 L0,1 Z " transform="translate(8,5)" style="fill: #CB0900;"/><path d="M0,0 L1,0 L1,1 L0,1 Z " transform="translate(7,5)" style="fill: #D40A00;"/><path d="M0,0 L1,0 L1,1 L0,1 Z " transform="translate(3,5)" style="fill: #D20900;"/><path d="M0,0 L1,0 L1,1 L0,1 Z " transform="translate(2,5)" style="fill: #C40900;"/><path d="M0,0 L1,0 L1,1 L0,1 Z " transform="translate(12,4)" style="fill: #D50A00;"/><path d="M0,0 L1,0 L1,1 L0,1 Z " transform="translate(10,4)" style="fill: #C30900;"/><path d="M0,0 L1,0 L1,1 L0,1 Z " transform="translate(9,4)" style="fill: #BC0900;"/><path d="M0,0 L1,0 L1,1 L0,1 Z " transform="translate(7,4)" style="fill: #BF0900;"/><path d="M0,0 L1,0 L1,1 L0,1 Z " transform="translate(6,4)" style="fill: #CB0900;"/><path d="M0,0 L1,0 L1,1 L0,1 Z " transform="translate(4,4)" style="fill: #D60A00;"/><path d="M0,0 L1,0 L1,1 L0,1 Z " transform="translate(12,3)" style="fill: #C30900;"/><path d="M0,0 L1,0 L1,1 L0,1 Z " transform="translate(10,3)" style="fill: #CA0900;"/><path d="M0,0 L1,0 L1,1 L0,1 Z " transform="translate(6,3)" style="fill: #BC0900;"/><path d="M0,0 L1,0 L1,1 L0,1 Z " transform="translate(4,3)" style="fill: #C30900;"/><path d="M0,0 L1,0 L1,1 L0,1 Z " transform="translate(2,3)" style="fill: #C40900;"/><path d="M0,0 L1,0 L1,1 L0,1 Z " transform="translate(5,2)" style="fill: #C90900;"/><path d="M0,0 L1,0 L1,1 L0,1 Z " transform="translate(3,2)" style="fill: #C90900;"/></svg>