<svg id="svg" version="1.1" xmlns="http://www.w3.org/2000/svg" style="display: block;" viewBox="0 0 16 16"><path d="M0,0 L16,0 L16,16 L0,16 Z " transform="translate(0,0)" style="fill: none;"/><path d="M0,0 L2,0 L2,1 L3,1 L3,2 L4,2 L4,3 L5,3 L5,4 L3,4 L3,3 L1,3 L1,2 L0,2 L0,4 L-1,4 L-1,5 L1,5 L1,6 L5,6 L5,7 L4,7 L4,8 L3,8 L3,9 L2,9 L2,10 L1,10 L1,11 L0,11 L0,12 L-2,12 L-2,11 L-3,11 L-3,10 L-4,10 L-4,9 L-5,9 L-5,8 L-6,8 L-6,6 L-5,6 L-5,5 L-4,5 L-4,4 L-3,4 L-3,3 L-2,3 L-2,2 L-1,2 L-1,1 L0,1 Z " transform="translate(8,2)" style="fill: #70981D;"/><path d="M0,0 L2,0 L2,1 L0,1 Z M-1,1 L0,1 L0,2 L-1,2 Z M2,1 L3,1 L3,2 L2,2 Z M-2,2 L-1,2 L-1,3 L-2,3 Z M3,2 L4,2 L4,3 L3,3 Z M-3,3 L-2,3 L-2,4 L-3,4 Z M0,3 L1,3 L1,4 L3,4 L3,5 L5,5 L5,4 L6,4 L6,5 L7,5 L7,7 L6,7 L6,8 L5,8 L5,7 L1,7 L1,6 L-1,6 L-1,5 L0,5 Z M4,3 L5,3 L5,4 L4,4 Z M-4,4 L-3,4 L-3,5 L-4,5 Z M-5,5 L-4,5 L-4,6 L-5,6 Z M-6,6 L-5,6 L-5,7 L-6,7 Z M-7,7 L-6,7 L-6,9 L-7,9 Z M4,8 L5,8 L5,9 L4,9 Z M-6,9 L-5,9 L-5,10 L-6,10 Z M3,9 L4,9 L4,10 L3,10 Z M-5,10 L-4,10 L-4,11 L-5,11 Z M2,10 L3,10 L3,11 L2,11 Z M-4,11 L-3,11 L-3,12 L-4,12 Z M1,11 L2,11 L2,12 L1,12 Z M-3,12 L-2,12 L-2,13 L-3,13 Z M0,12 L1,12 L1,13 L0,13 Z M-2,13 L0,13 L0,14 L-2,14 Z " transform="translate(8,1)" style="fill: #331D00;"/><path d="M0,0 L2,0 L2,1 L3,1 L3,2 L4,2 L4,3 L5,3 L5,4 L3,4 L3,3 L1,3 L1,2 L0,2 L0,4 L-1,4 L-1,5 L1,5 L1,6 L5,6 L5,7 L4,7 L4,8 L3,8 L3,9 L2,9 L2,8 L0,8 L0,7 L-1,7 L-1,6 L-2,6 L-2,5 L-4,5 L-4,4 L-3,4 L-3,3 L-2,3 L-2,2 L-1,2 L-1,1 L0,1 Z " transform="translate(8,2)" style="fill: #BE992B;"/><path d="M0,0 L1,0 L1,1 L3,1 L3,2 L6,2 L6,4 L1,4 L1,3 L-1,3 L-1,2 L0,2 Z " transform="translate(8,4)" style="fill: #3F308F;"/><path d="M0,0 L2,0 L2,1 L3,1 L3,2 L4,2 L4,3 L5,3 L5,4 L3,4 L3,3 L1,3 L1,2 L0,2 L0,4 L-1,4 L-1,3 L-2,3 L-2,2 L-1,2 L-1,1 L0,1 Z " transform="translate(8,2)" style="fill: #53863B;"/><path d="M0,0 L1,0 L1,1 L2,1 L2,2 L3,2 L3,3 L5,3 L5,4 L0,4 L0,3 L-1,3 L-1,1 L0,1 Z " transform="translate(5,7)" style="fill: #509817;"/><path d="M0,0 L3,0 L3,1 L2,1 L2,2 L1,2 L1,3 L0,3 L0,2 L-1,2 L-1,1 L0,1 Z " transform="translate(10,8)" style="fill: #559918;"/><path d="M0,0 L2,0 L2,1 L1,1 L1,2 L0,2 L0,4 L-1,4 L-1,3 L-2,3 L-2,2 L-1,2 L-1,1 L0,1 Z " transform="translate(8,2)" style="fill: #3D7548;"/><path d="M0,0 L2,0 L2,1 L1,1 L1,3 L-1,3 L-1,1 L0,1 Z " transform="translate(3,7)" style="fill: #8D641D;"/><path d="M0,0 L3,0 L3,2 L0,2 Z " transform="translate(11,6)" style="fill: #664C72;"/><path d="M0,0 L2,0 L2,1 L3,1 L3,3 L2,3 L2,2 L1,2 L1,1 L0,1 Z " transform="translate(3,10)" style="fill: #979827;"/><path d="M0,0 L1,0 L1,1 L2,1 L2,2 L1,2 L1,3 L0,3 L0,2 L-1,2 L-1,1 L0,1 Z " transform="translate(8,7)" style="fill: #C14314;"/><path d="M0,0 L1,0 L1,2 L0,2 L0,3 L-1,3 L-1,1 L0,1 Z " transform="translate(5,7)" style="fill: #3E9810;"/><path d="M0,0 L1,0 L1,3 L-1,3 L-1,2 L0,2 Z " transform="translate(8,4)" style="fill: #4F3C81;"/><path d="M0,0 L2,0 L2,1 L1,1 L1,2 L0,2 Z " transform="translate(11,8)" style="fill: #C89835;"/><path d="M0,0 L1,0 L1,1 L2,1 L2,2 L0,2 Z " transform="translate(6,6)" style="fill: #9E9528;"/><path d="M0,0 L2,0 L2,2 L1,2 L1,1 L0,1 Z " transform="translate(6,4)" style="fill: #AA8447;"/><path d="M0,0 L2,0 L2,1 L0,1 Z " transform="translate(6,13)" style="fill: #C89833;"/><path d="M0,0 L2,0 L2,1 L0,1 Z " transform="translate(7,12)" style="fill: #9B9927;"/><path d="M0,0 L2,0 L2,1 L0,1 Z " transform="translate(8,10)" style="fill: #5B9919;"/><path d="M0,0 L2,0 L2,1 L0,1 Z " transform="translate(6,10)" style="fill: #4B9814;"/><path d="M0,0 L2,0 L2,1 L0,1 Z " transform="translate(12,7)" style="fill: #614A7E;"/><path d="M0,0 L2,0 L2,1 L0,1 Z " transform="translate(9,7)" style="fill: #453489;"/><path d="M0,0 L2,0 L2,1 L0,1 Z " transform="translate(3,7)" style="fill: #B29830;"/><path d="M0,0 L1,0 L1,2 L0,2 Z " transform="translate(9,5)" style="fill: #40308E;"/><path d="M0,0 L1,0 L1,2 L0,2 Z " transform="translate(8,4)" style="fill: #473787;"/><path d="M0,0 L2,0 L2,1 L0,1 Z " transform="translate(5,5)" style="fill: #CDB51C;"/><path d="M0,0 L1,0 L1,2 L0,2 Z " transform="translate(9,3)" style="fill: #50734E;"/><path d="M0,0 L2,0 L2,1 L0,1 Z " transform="translate(8,2)" style="fill: #84A61F;"/><path d="M0,0 L1,0 L1,1 L0,1 Z " transform="translate(6,13)" style="fill: #C99936;"/><path d="M0,0 L1,0 L1,1 L0,1 Z " transform="translate(7,12)" style="fill: #949625;"/><path d="M0,0 L1,0 L1,1 L0,1 Z " transform="translate(6,12)" style="fill: #889620;"/><path d="M0,0 L1,0 L1,1 L0,1 Z " transform="translate(5,12)" style="fill: #BD9934;"/><path d="M0,0 L1,0 L1,1 L0,1 Z " transform="translate(9,11)" style="fill: #BC8E2E;"/><path d="M0,0 L1,0 L1,1 L0,1 Z " transform="translate(8,11)" style="fill: #769820;"/><path d="M0,0 L1,0 L1,1 L0,1 Z " transform="translate(6,11)" style="fill: #76981F;"/><path d="M0,0 L1,0 L1,1 L0,1 Z " transform="translate(5,11)" style="fill: #A0982A;"/><path d="M0,0 L1,0 L1,1 L0,1 Z " transform="translate(4,11)" style="fill: #C99935;"/><path d="M0,0 L1,0 L1,1 L0,1 Z " transform="translate(10,10)" style="fill: #B39B31;"/><path d="M0,0 L1,0 L1,1 L0,1 Z " transform="translate(8,10)" style="fill: #5A9816;"/><path d="M0,0 L1,0 L1,1 L0,1 Z " transform="translate(6,10)" style="fill: #489813;"/><path d="M0,0 L1,0 L1,1 L0,1 Z " transform="translate(5,10)" style="fill: #5D9818;"/><path d="M0,0 L1,0 L1,1 L0,1 Z " transform="translate(3,10)" style="fill: #B88E2D;"/><path d="M0,0 L1,0 L1,1 L0,1 Z " transform="translate(11,9)" style="fill: #CA9A37;"/><path d="M0,0 L1,0 L1,1 L0,1 Z " transform="translate(9,9)" style="fill: #67991C;"/><path d="M0,0 L1,0 L1,1 L0,1 Z " transform="translate(8,9)" style="fill: #C02E0F;"/><path d="M0,0 L1,0 L1,1 L0,1 Z " transform="translate(7,9)" style="fill: #71981D;"/><path d="M0,0 L1,0 L1,1 L0,1 Z " transform="translate(5,9)" style="fill: #3D9811;"/><path d="M0,0 L1,0 L1,1 L0,1 Z " transform="translate(4,9)" style="fill: #583605;"/><path d="M0,0 L1,0 L1,1 L0,1 Z " transform="translate(3,9)" style="fill: #809822;"/><path d="M0,0 L1,0 L1,1 L0,1 Z " transform="translate(2,9)" style="fill: #B78F2F;"/><path d="M0,0 L1,0 L1,1 L0,1 Z " transform="translate(11,8)" style="fill: #BB8E2E;"/><path d="M0,0 L1,0 L1,1 L0,1 Z " transform="translate(10,8)" style="fill: #789820;"/><path d="M0,0 L1,0 L1,1 L0,1 Z " transform="translate(9,8)" style="fill: #C13411;"/><path d="M0,0 L1,0 L1,1 L0,1 Z " transform="translate(7,8)" style="fill: #C14316;"/><path d="M0,0 L1,0 L1,1 L0,1 Z " transform="translate(6,8)" style="fill: #64981B;"/><path d="M0,0 L1,0 L1,1 L0,1 Z " transform="translate(4,8)" style="fill: #429813;"/><path d="M0,0 L1,0 L1,1 L0,1 Z " transform="translate(2,8)" style="fill: #839A25;"/><path d="M0,0 L1,0 L1,1 L0,1 Z " transform="translate(12,7)" style="fill: #523F83;"/><path d="M0,0 L1,0 L1,1 L0,1 Z " transform="translate(9,7)" style="fill: #5D4576;"/><path d="M0,0 L1,0 L1,1 L0,1 Z " transform="translate(8,7)" style="fill: #C03911;"/><path d="M0,0 L1,0 L1,1 L0,1 Z " transform="translate(7,7)" style="fill: #9E7647;"/><path d="M0,0 L1,0 L1,1 L0,1 Z " transform="translate(5,7)" style="fill: #549817;"/><path d="M0,0 L1,0 L1,1 L0,1 Z " transform="translate(3,7)" style="fill: #8F9825;"/><path d="M0,0 L1,0 L1,1 L0,1 Z " transform="translate(13,6)" style="fill: #578441;"/><path d="M0,0 L1,0 L1,1 L0,1 Z " transform="translate(12,6)" style="fill: #715467;"/><path d="M0,0 L1,0 L1,1 L0,1 Z " transform="translate(11,6)" style="fill: #6C506F;"/><path d="M0,0 L1,0 L1,1 L0,1 Z " transform="translate(7,6)" style="fill: #554578;"/><path d="M0,0 L1,0 L1,1 L0,1 Z " transform="translate(6,6)" style="fill: #9B8348;"/><path d="M0,0 L1,0 L1,1 L0,1 Z " transform="translate(4,6)" style="fill: #C99A36;"/><path d="M0,0 L1,0 L1,1 L0,1 Z " transform="translate(12,5)" style="fill: #6BA81F;"/><path d="M0,0 L1,0 L1,1 L0,1 Z " transform="translate(11,5)" style="fill: #3F932C;"/><path d="M0,0 L1,0 L1,1 L0,1 Z " transform="translate(10,5)" style="fill: #634B75;"/><path d="M0,0 L1,0 L1,1 L0,1 Z " transform="translate(9,5)" style="fill: #3C2E90;"/><path d="M0,0 L1,0 L1,1 L0,1 Z " transform="translate(7,5)" style="fill: #999517;"/><path d="M0,0 L1,0 L1,1 L0,1 Z " transform="translate(5,5)" style="fill: #A8A90A;"/><path d="M0,0 L1,0 L1,1 L0,1 Z " transform="translate(11,4)" style="fill: #83A625;"/><path d="M0,0 L1,0 L1,1 L0,1 Z " transform="translate(8,4)" style="fill: #70556E;"/><path d="M0,0 L1,0 L1,1 L0,1 Z " transform="translate(6,4)" style="fill: #688701;"/><path d="M0,0 L1,0 L1,1 L0,1 Z " transform="translate(10,3)" style="fill: #51962D;"/><path d="M0,0 L1,0 L1,1 L0,1 Z " transform="translate(9,3)" style="fill: #3F7745;"/><path d="M0,0 L1,0 L1,1 L0,1 Z " transform="translate(7,3)" style="fill: #57AE18;"/></svg>